<?xml version="1.0" encoding="utf-8"?>
<!-- Generator: Adobe Illustrator 24.3.0, SVG Export Plug-In . SVG Version: 6.00 Build 0)  -->
<svg version="1.1" id="Layer_1" xmlns="http://www.w3.org/2000/svg" xmlns:xlink="http://www.w3.org/1999/xlink" x="0px" y="0px"
	 viewBox="340 350 1300 1300" style="enable-background:new 340 350 1300 1300;" xml:space="preserve">
<style type="text/css">
	.st0{fill:#07797C;}
	.st1{fill:#FFFFFF;}
</style>
<rect class="st0" x="340" y="350" width="1300" height="1300" rx="150" ry="150"/>
<g>
	<polygon class="st1" points="718.6,837.06 651.19,666.76 392.74,628.06 555.18,887.01 555.56,887.61 776.33,1077.22 759.67,900.82 
			"/>
	<path class="st1" d="M1403.02,1110.35l-359.82-96.07l194.34-111.64l276.03-220.13l0.54-0.43l77.43-112.13l-500.94,91.17l-1.67,0.31
		L891.97,900.04l25.22-196.91l-21.44-90.03l-128.98,83.28l-36.69,100.49l81.83-24.91L778.25,917l-0.17,0.74L795.03,1097L987,1208.71
		l-10.81-53.46l90.16,127.83l-4.67,106.63c-19.2,0.56-34.64,16.35-34.64,35.68v4.66h29.31l0,0.01h43.78l57.89-234.19l256.95-17.4
		l1.31-0.09l190.99-135.08L1403.02,1110.35z"/>
	<path class="st1" d="M899.89,1191.19l34.94,89.51l-59.53,108.99h-7.97c-19.68,0-35.7,16.01-35.7,35.7v4.66h65.6l105.18-152.6
		l-9.51-46.37L899.89,1191.19z"/>
</g>
</svg>
